# xmcd CD database file
#
# Track frame offsets:
#	150
#	15838
#	25091
#	35594
#	49102
#	59287
#	71586
#	81760
#	90152
#	104332
#
# Disc length: 1503 seconds
#
# Revision: 0
# Processed by: cddbd v1.4PL0 Copyright (c) Steve Scherf et al.
# Submitted via: CDex 1.50beta10
#
DISCID=6d05dd0a
DTITLE=Kaija Bonde - Kaija sings Patsy
DYEAR=2000
DGENRE=Country
TTITLE0=Back in Baby's Arms
TTITLE1=Walkin After Midnigh
TTITLE2=Lovesick Blues
TTITLE3=Sweet Dreams
TTITLE4=Three Cigarettes
TTITLE5=Crazy
TTITLE6=Seven Lonely Days
TTITLE7=Gotta Lotta Rhythm
TTITLE8=Always
TTITLE9=Heartaches
EXTD=YEAR: 2000
EXTT0=
EXTT1=
EXTT2=
EXTT3=
EXTT4=
EXTT5=
EXTT6=
EXTT7=
EXTT8=
EXTT9=
PLAYORDER=
